<svg width="329" height="131" viewBox="0 0 329 131" fill="none" xmlns="http://www.w3.org/2000/svg">
<g filter="url(#filter0_d_56_1107)">
<path d="M140.03 89.71C135.71 89.71 131.63 88.9 127.79 87.28C124.01 85.6 120.68 83.32 117.8 80.44C114.98 77.5 112.73 74.11 111.05 70.27C109.43 66.43 108.62 62.29 108.62 57.85C108.62 53.35 109.4 49.15 110.96 45.25C112.58 41.29 114.77 37.81 117.53 34.81C120.35 31.81 123.62 29.47 127.34 27.79C131.06 26.11 135.05 25.27 139.31 25.27C143.63 25.27 147.68 26.11 151.46 27.79C155.3 29.41 158.63 31.69 161.45 34.63C164.27 37.57 166.49 40.99 168.11 44.89C169.79 48.79 170.63 53.02 170.63 57.58C170.63 61.96 169.82 66.1 168.2 70C166.64 73.84 164.45 77.26 161.63 80.26C158.81 83.2 155.54 85.51 151.82 87.19C148.16 88.87 144.23 89.71 140.03 89.71ZM139.58 76.03C141.98 76.03 144.23 75.55 146.33 74.59C148.43 73.63 150.26 72.34 151.82 70.72C153.44 69.04 154.67 67.09 155.51 64.87C156.41 62.59 156.86 60.13 156.86 57.49C156.86 54.97 156.41 52.6 155.51 50.38C154.61 48.1 153.35 46.12 151.73 44.44C150.17 42.7 148.34 41.35 146.24 40.39C144.2 39.43 141.98 38.95 139.58 38.95C137.24 38.95 135.02 39.43 132.92 40.39C130.88 41.35 129.05 42.7 127.43 44.44C125.87 46.12 124.61 48.1 123.65 50.38C122.75 52.6 122.3 55 122.3 57.58C122.3 60.1 122.75 62.5 123.65 64.78C124.61 67 125.87 68.95 127.43 70.63C129.05 72.31 130.88 73.63 132.92 74.59C134.96 75.55 137.18 76.03 139.58 76.03ZM193.275 88.9C191.655 88.9 190.395 88.6 189.495 88C188.655 87.4 188.025 86.68 187.605 85.84C187.245 85 186.945 84.28 186.705 83.68L174.015 52.27C173.595 50.83 173.385 49.63 173.385 48.67C173.445 47.65 173.805 46.81 174.465 46.15C175.185 45.43 176.295 44.8 177.795 44.26C180.075 43.3 181.935 43.03 183.375 43.45C184.815 43.87 185.895 45.1 186.615 47.14L193.275 65.23L199.215 48.58C199.455 47.98 199.785 47.32 200.205 46.6C200.625 45.82 201.255 45.13 202.095 44.53C202.995 43.93 204.195 43.63 205.695 43.63C207.315 43.63 208.575 43.93 209.475 44.53C210.375 45.13 211.035 45.82 211.455 46.6C211.935 47.38 212.265 48.04 212.445 48.58L218.385 65.23L224.685 48.22C225.525 46 226.635 44.5 228.015 43.72C229.395 42.94 231.225 43.03 233.505 43.99C235.605 44.89 237.045 46 237.825 47.32C238.605 48.64 238.515 50.32 237.555 52.36L224.865 83.68C224.625 84.34 224.295 85.09 223.875 85.93C223.455 86.77 222.825 87.46 221.985 88C221.145 88.6 219.975 88.9 218.475 88.9C216.915 88.9 215.715 88.63 214.875 88.09C214.035 87.61 213.375 86.95 212.895 86.11C212.475 85.27 212.115 84.43 211.815 83.59L205.785 67.03L199.845 83.59C199.425 84.67 199.035 85.63 198.675 86.47C198.315 87.25 197.715 87.85 196.875 88.27C196.095 88.69 194.895 88.9 193.275 88.9ZM260.333 88.81C257.873 88.81 255.683 88.66 253.763 88.36C251.903 88.12 250.283 87.64 248.903 86.92C247.583 86.2 246.503 85.21 245.663 83.95C244.823 82.69 244.193 81.07 243.773 79.09C243.413 77.05 243.233 74.56 243.233 71.62V30.04C243.233 28.84 243.323 27.73 243.503 26.71C243.743 25.69 244.343 24.85 245.303 24.19C246.263 23.53 247.823 23.2 249.983 23.2C252.143 23.2 253.673 23.53 254.573 24.19C255.533 24.85 256.133 25.69 256.373 26.71C256.613 27.73 256.733 28.84 256.733 30.04V70.99C256.733 71.95 256.763 72.76 256.823 73.42C256.943 74.02 257.123 74.5 257.363 74.86C257.663 75.22 258.053 75.46 258.533 75.58C259.013 75.7 259.643 75.76 260.423 75.76C261.143 75.76 261.863 75.85 262.583 76.03C263.363 76.21 264.023 76.75 264.563 77.65C265.103 78.55 265.373 80.05 265.373 82.15C265.373 84.31 265.103 85.87 264.563 86.83C264.023 87.79 263.363 88.36 262.583 88.54C261.863 88.72 261.113 88.81 260.333 88.81ZM278.421 106.99C275.961 105.91 274.521 104.71 274.101 103.39C273.741 102.07 274.071 100.3 275.091 98.08L297.681 47.59C298.701 45.25 299.811 43.87 301.011 43.45C302.271 42.97 304.131 43.21 306.591 44.17C308.991 45.31 310.371 46.51 310.731 47.77C311.151 49.03 310.881 50.71 309.921 52.81L287.241 103.66C286.221 106 285.111 107.41 283.911 107.89C282.711 108.37 280.881 108.07 278.421 106.99ZM286.251 86.02L265.101 53.8C263.781 51.82 263.241 50.17 263.481 48.85C263.781 47.53 264.981 46.18 267.081 44.8C269.421 43.36 271.221 42.82 272.481 43.18C273.801 43.48 275.121 44.65 276.441 46.69L292.011 70.54L286.251 86.02Z" fill="#59A8C6"/>
</g>
<path d="M130.135 117.905C130.742 117.905 131.243 118.103 131.64 118.5C132.06 118.873 132.27 119.363 132.27 119.97C132.27 120.553 132.06 121.043 131.64 121.44C131.243 121.813 130.742 122 130.135 122H118.76C118.153 122 117.64 121.802 117.22 121.405C116.823 120.985 116.625 120.472 116.625 119.865V99.635C116.625 99.0283 116.835 98.5267 117.255 98.13C117.675 97.71 118.212 97.5 118.865 97.5C119.425 97.5 119.915 97.71 120.335 98.13C120.778 98.5267 121 99.0283 121 99.635V118.5L120.23 117.905H130.135ZM139.883 119.865C139.883 120.472 139.685 120.985 139.288 121.405C138.892 121.802 138.39 122 137.783 122C137.177 122 136.675 121.802 136.278 121.405C135.882 120.985 135.683 120.472 135.683 119.865V105.41C135.683 104.803 135.882 104.302 136.278 103.905C136.675 103.485 137.177 103.275 137.783 103.275C138.39 103.275 138.892 103.485 139.288 103.905C139.685 104.302 139.883 104.803 139.883 105.41V119.865ZM137.748 101C136.955 101 136.395 100.872 136.068 100.615C135.742 100.358 135.578 99.9033 135.578 99.25V98.585C135.578 97.9083 135.753 97.4533 136.103 97.22C136.477 96.9633 137.037 96.835 137.783 96.835C138.6 96.835 139.172 96.9633 139.498 97.22C139.825 97.4767 139.988 97.9317 139.988 98.585V99.25C139.988 99.9267 139.813 100.393 139.463 100.65C139.113 100.883 138.542 101 137.748 101ZM153.895 102.925C155.528 102.925 156.986 103.345 158.27 104.185C159.576 105.002 160.603 106.133 161.35 107.58C162.12 109.027 162.505 110.707 162.505 112.62C162.505 114.533 162.12 116.225 161.35 117.695C160.603 119.142 159.588 120.285 158.305 121.125C157.045 121.942 155.621 122.35 154.035 122.35C153.101 122.35 152.226 122.198 151.41 121.895C150.593 121.592 149.87 121.207 149.24 120.74C148.633 120.273 148.155 119.807 147.805 119.34C147.478 118.85 147.315 118.442 147.315 118.115L148.4 117.66V120.215C148.4 120.822 148.201 121.335 147.805 121.755C147.408 122.152 146.906 122.35 146.3 122.35C145.693 122.35 145.191 122.152 144.795 121.755C144.398 121.358 144.2 120.845 144.2 120.215V98.235C144.2 97.6283 144.398 97.1267 144.795 96.73C145.191 96.31 145.693 96.1 146.3 96.1C146.906 96.1 147.408 96.31 147.805 96.73C148.201 97.1267 148.4 97.6283 148.4 98.235V107.125L147.805 106.81C147.805 106.507 147.968 106.145 148.295 105.725C148.621 105.282 149.065 104.85 149.625 104.43C150.185 103.987 150.826 103.625 151.55 103.345C152.296 103.065 153.078 102.925 153.895 102.925ZM153.37 106.775C152.343 106.775 151.445 107.032 150.675 107.545C149.905 108.058 149.298 108.758 148.855 109.645C148.435 110.508 148.225 111.5 148.225 112.62C148.225 113.717 148.435 114.72 148.855 115.63C149.298 116.517 149.905 117.217 150.675 117.73C151.445 118.243 152.343 118.5 153.37 118.5C154.396 118.5 155.283 118.243 156.03 117.73C156.8 117.217 157.395 116.517 157.815 115.63C158.258 114.72 158.48 113.717 158.48 112.62C158.48 111.5 158.258 110.508 157.815 109.645C157.395 108.758 156.8 108.058 156.03 107.545C155.283 107.032 154.396 106.775 153.37 106.775ZM168.277 122C167.671 122 167.169 121.802 166.772 121.405C166.376 120.985 166.177 120.472 166.177 119.865V105.41C166.177 104.803 166.376 104.302 166.772 103.905C167.169 103.485 167.671 103.275 168.277 103.275C168.884 103.275 169.386 103.485 169.782 103.905C170.179 104.302 170.377 104.803 170.377 105.41V108.7L170.132 106.355C170.389 105.795 170.716 105.305 171.112 104.885C171.532 104.442 171.999 104.08 172.512 103.8C173.026 103.497 173.574 103.275 174.157 103.135C174.741 102.995 175.324 102.925 175.907 102.925C176.607 102.925 177.191 103.123 177.657 103.52C178.147 103.917 178.392 104.383 178.392 104.92C178.392 105.69 178.194 106.25 177.797 106.6C177.401 106.927 176.969 107.09 176.502 107.09C176.059 107.09 175.651 107.008 175.277 106.845C174.927 106.682 174.519 106.6 174.052 106.6C173.632 106.6 173.201 106.705 172.757 106.915C172.337 107.102 171.941 107.405 171.567 107.825C171.217 108.245 170.926 108.77 170.692 109.4C170.482 110.007 170.377 110.73 170.377 111.57V119.865C170.377 120.472 170.179 120.985 169.782 121.405C169.386 121.802 168.884 122 168.277 122ZM189.387 122.35C187.404 122.35 185.677 121.942 184.207 121.125C182.76 120.285 181.64 119.153 180.847 117.73C180.077 116.307 179.692 114.697 179.692 112.9C179.692 110.8 180.112 109.015 180.952 107.545C181.815 106.052 182.935 104.908 184.312 104.115C185.689 103.322 187.147 102.925 188.687 102.925C189.877 102.925 190.997 103.17 192.047 103.66C193.12 104.15 194.065 104.827 194.882 105.69C195.699 106.53 196.34 107.51 196.807 108.63C197.297 109.75 197.542 110.94 197.542 112.2C197.519 112.76 197.297 113.215 196.877 113.565C196.457 113.915 195.967 114.09 195.407 114.09H182.037L180.987 110.59H193.832L193.062 111.29V110.345C193.015 109.668 192.77 109.062 192.327 108.525C191.907 107.988 191.37 107.568 190.717 107.265C190.087 106.938 189.41 106.775 188.687 106.775C187.987 106.775 187.334 106.868 186.727 107.055C186.12 107.242 185.595 107.557 185.152 108C184.709 108.443 184.359 109.038 184.102 109.785C183.845 110.532 183.717 111.477 183.717 112.62C183.717 113.88 183.974 114.953 184.487 115.84C185.024 116.703 185.7 117.368 186.517 117.835C187.357 118.278 188.244 118.5 189.177 118.5C190.04 118.5 190.729 118.43 191.242 118.29C191.755 118.15 192.164 117.987 192.467 117.8C192.794 117.59 193.085 117.415 193.342 117.275C193.762 117.065 194.159 116.96 194.532 116.96C195.045 116.96 195.465 117.135 195.792 117.485C196.142 117.835 196.317 118.243 196.317 118.71C196.317 119.34 195.99 119.912 195.337 120.425C194.73 120.938 193.879 121.393 192.782 121.79C191.685 122.163 190.554 122.35 189.387 122.35ZM203.312 122C202.705 122 202.203 121.802 201.807 121.405C201.41 120.985 201.212 120.472 201.212 119.865V105.41C201.212 104.803 201.41 104.302 201.807 103.905C202.203 103.485 202.705 103.275 203.312 103.275C203.918 103.275 204.42 103.485 204.817 103.905C205.213 104.302 205.412 104.803 205.412 105.41V108.7L205.167 106.355C205.423 105.795 205.75 105.305 206.147 104.885C206.567 104.442 207.033 104.08 207.547 103.8C208.06 103.497 208.608 103.275 209.192 103.135C209.775 102.995 210.358 102.925 210.942 102.925C211.642 102.925 212.225 103.123 212.692 103.52C213.182 103.917 213.427 104.383 213.427 104.92C213.427 105.69 213.228 106.25 212.832 106.6C212.435 106.927 212.003 107.09 211.537 107.09C211.093 107.09 210.685 107.008 210.312 106.845C209.962 106.682 209.553 106.6 209.087 106.6C208.667 106.6 208.235 106.705 207.792 106.915C207.372 107.102 206.975 107.405 206.602 107.825C206.252 108.245 205.96 108.77 205.727 109.4C205.517 110.007 205.412 110.73 205.412 111.57V119.865C205.412 120.472 205.213 120.985 204.817 121.405C204.42 121.802 203.918 122 203.312 122ZM220.342 119.865C220.342 120.472 220.144 120.985 219.747 121.405C219.351 121.802 218.849 122 218.242 122C217.636 122 217.134 121.802 216.737 121.405C216.341 120.985 216.142 120.472 216.142 119.865V105.41C216.142 104.803 216.341 104.302 216.737 103.905C217.134 103.485 217.636 103.275 218.242 103.275C218.849 103.275 219.351 103.485 219.747 103.905C220.144 104.302 220.342 104.803 220.342 105.41V119.865ZM218.207 101C217.414 101 216.854 100.872 216.527 100.615C216.201 100.358 216.037 99.9033 216.037 99.25V98.585C216.037 97.9083 216.212 97.4533 216.562 97.22C216.936 96.9633 217.496 96.835 218.242 96.835C219.059 96.835 219.631 96.9633 219.957 97.22C220.284 97.4767 220.447 97.9317 220.447 98.585V99.25C220.447 99.9267 220.272 100.393 219.922 100.65C219.572 100.883 219.001 101 218.207 101ZM239.989 102.925C240.595 102.925 241.097 103.123 241.494 103.52C241.89 103.917 242.089 104.43 242.089 105.06V119.865C242.089 120.472 241.89 120.985 241.494 121.405C241.097 121.802 240.595 122 239.989 122C239.382 122 238.88 121.802 238.484 121.405C238.087 120.985 237.889 120.472 237.889 119.865V118.15L238.659 118.465C238.659 118.768 238.495 119.142 238.169 119.585C237.842 120.005 237.399 120.425 236.839 120.845C236.279 121.265 235.614 121.627 234.844 121.93C234.097 122.21 233.28 122.35 232.394 122.35C230.784 122.35 229.325 121.942 228.019 121.125C226.712 120.285 225.674 119.142 224.904 117.695C224.157 116.225 223.784 114.545 223.784 112.655C223.784 110.742 224.157 109.062 224.904 107.615C225.674 106.145 226.7 105.002 227.984 104.185C229.267 103.345 230.69 102.925 232.254 102.925C233.257 102.925 234.179 103.077 235.019 103.38C235.859 103.683 236.582 104.068 237.189 104.535C237.819 105.002 238.297 105.48 238.624 105.97C238.974 106.437 239.149 106.833 239.149 107.16L237.889 107.615V105.06C237.889 104.453 238.087 103.952 238.484 103.555C238.88 103.135 239.382 102.925 239.989 102.925ZM232.919 118.5C233.945 118.5 234.844 118.243 235.614 117.73C236.384 117.217 236.979 116.517 237.399 115.63C237.842 114.743 238.064 113.752 238.064 112.655C238.064 111.535 237.842 110.532 237.399 109.645C236.979 108.758 236.384 108.058 235.614 107.545C234.844 107.032 233.945 106.775 232.919 106.775C231.915 106.775 231.029 107.032 230.259 107.545C229.489 108.058 228.882 108.758 228.439 109.645C228.019 110.532 227.809 111.535 227.809 112.655C227.809 113.752 228.019 114.743 228.439 115.63C228.882 116.517 229.489 117.217 230.259 117.73C231.029 118.243 231.915 118.5 232.919 118.5Z" fill="#575D90"/>
<g clip-path="url(#clip0_56_1107)">
<path d="M46.9452 121.71C69.2607 121.71 87.3511 118.839 87.3511 115.298C87.3511 111.757 69.2607 108.886 46.9452 108.886C24.6296 108.886 6.53925 111.757 6.53925 115.298C6.53925 118.839 24.6296 121.71 46.9452 121.71Z" fill="#BFBFBF"/>
<path d="M35.0965 19.864C35.0965 19.864 31.9414 17.591 26.9034 15.8777C21.789 14.139 18.0911 16.3102 15.2328 10.0085C14.5119 16.641 19.0071 23.2057 19.0071 23.2057L35.105 19.8725L35.0965 19.864Z" fill="#F49400"/>
<path d="M59.871 19.864C59.871 19.864 63.0261 17.591 68.0641 15.8777C73.1785 14.139 76.8764 16.3102 79.7347 10.0085C80.4556 16.641 75.9604 23.2057 75.9604 23.2057L59.8625 19.8725L59.871 19.864Z" fill="#F49400"/>
<path d="M42.5348 26.7255C42.5348 26.7255 42.0344 16.5986 37.8615 12.061C42.1107 12.4427 44.4686 15.0465 45.5288 21.238C45.0368 13.1466 48.5058 12.1204 48.5058 12.1204C48.5058 12.1204 47.9884 20.3983 49.9731 20.9157C53.0943 15.4027 55.7151 15.6487 57.9542 15.7589C53.1452 19.1261 51.4743 28.7865 51.4743 28.7865L42.5263 26.7255H42.5348Z" fill="#F49400"/>
<path d="M4.21532 45.1643C4.19835 44.9523 4.18139 44.7403 4.16443 44.5282H4.3171C6.15758 35.0289 24.783 21.4924 47.488 21.4924C70.193 21.4924 88.8184 35.0289 90.6589 44.5282H90.8116C90.7946 44.7403 90.7776 44.9523 90.7607 45.1643C90.7946 45.4697 90.8116 45.775 90.8116 46.0804C90.8116 46.7928 90.7098 47.4968 90.5317 48.1922C89.7599 59.3963 89.4715 72.0253 83.7804 83.7298C70.5662 110.905 51.9493 112.007 47.4965 111.863C43.0437 112.016 24.4268 110.913 11.2126 83.7298C5.52147 72.0253 5.2331 59.3963 4.46128 48.1922C4.27469 47.4968 4.18139 46.8013 4.18139 46.0804C4.18139 45.775 4.19835 45.4697 4.23228 45.1643H4.21532Z" fill="#59A8C6"/>
<path d="M94.9421 74.6461C95.5867 85.1208 84.2723 105.205 84.2723 105.205C84.2723 105.205 70.5747 86.6559 69.9301 76.1812C69.2855 65.7066 74.3574 56.8773 81.2699 56.4448C88.1738 56.0207 94.2975 64.1629 94.9421 74.6376V74.6461Z" fill="#0D4F5E"/>
<path d="M0.0254492 74.6462C-0.619146 85.1209 10.6952 105.205 10.6952 105.205C10.6952 105.205 24.3928 86.656 25.0374 76.1814C25.682 65.7067 20.6101 56.8774 13.6976 56.4449C6.7937 56.0293 0.670044 64.18 0.0254492 74.6462Z" fill="#0D4F5E"/>
<path d="M92.4146 47.9802C92.2704 36.4029 85.4004 26.6068 76.0707 23.2227C70.897 20.5256 45.2065 13.5029 18.9053 23.2227C9.56714 26.6068 2.69712 36.4029 2.55293 47.9802C2.36634 62.738 12.9682 74.7648 26.0722 74.7648C28.3537 74.7648 30.5589 74.4001 32.6453 73.7216C42.3397 70.558 52.6278 70.558 62.3222 73.7216C64.4086 74.4001 66.6138 74.7648 68.8953 74.7648C81.9993 74.7648 92.6012 62.738 92.4146 47.9802Z" fill="#28829E"/>
<path d="M66.9107 30.8984C56.6395 30.8984 48.2344 38.8371 47.4795 48.9132C46.7247 38.8371 38.3195 30.8984 28.0484 30.8984C17.7773 30.8984 8.55785 39.6259 8.55785 50.389C8.55785 61.152 17.2853 69.8795 28.0484 69.8795C38.8114 69.8795 46.7247 61.9408 47.4795 51.8647C48.2344 61.9408 56.6395 69.8795 66.9107 69.8795C77.1818 69.8795 86.4012 61.152 86.4012 50.389C86.4012 39.6259 77.6737 30.8984 66.9107 30.8984Z" fill="white"/>
<path d="M72.3897 49.4136C71.3041 50.2278 69.9301 50.6604 68.4797 50.5162C68.1999 50.4907 67.9369 50.4398 67.674 50.372C67.2669 52.4245 65.3585 53.8749 63.2297 53.6628C60.9651 53.4423 59.3027 51.4237 59.5233 49.1591C59.7268 47.0896 61.4231 45.5375 63.4332 45.4442C63.3993 45.0965 63.3993 44.7488 63.4332 44.384C63.552 43.1966 64.0269 42.1364 64.7479 41.2883C64.1202 41.1102 63.4672 40.9745 62.7886 40.9066C56.7837 40.3214 51.4489 44.7148 50.8636 50.7113C50.2784 56.7162 54.6718 62.051 60.6683 62.6363C66.6732 63.2215 72.008 58.8281 72.5933 52.8316C72.712 51.6527 72.6272 50.5077 72.3812 49.4136H72.3897Z" fill="#47808D"/>
<path d="M41.8054 45.0286C41.1862 46.233 40.1345 47.2169 38.7605 47.7173C38.4976 47.8106 38.2347 47.8784 37.9717 47.9378C38.4891 49.9649 37.4035 52.0937 35.3934 52.8316C33.256 53.6119 30.8897 52.5178 30.1009 50.3805C29.3884 48.4297 30.2366 46.2924 32.0177 45.334C31.8396 45.0371 31.6869 44.7148 31.5597 44.384C31.1526 43.2645 31.1187 42.094 31.407 41.0254C30.7624 41.1356 30.1094 41.2968 29.4733 41.5343C23.8161 43.6122 20.9069 49.8801 22.9849 55.5457C25.0629 61.2029 31.3307 64.112 36.9964 62.0341C42.6535 59.9561 45.5627 53.6883 43.4847 48.0226C43.0776 46.9115 42.5093 45.9107 41.8139 45.0371L41.8054 45.0286Z" fill="#47808D"/>
<path d="M40.5756 57.0469C40.5332 57.1318 40.4908 57.2081 40.4483 57.2759C40.1854 57.7679 40.143 58.5142 40.3381 59.0995L46.7756 78.5476C47.0979 79.523 47.8697 79.523 48.192 78.5476L54.621 59.0995C54.816 58.5142 54.7736 57.7594 54.5107 57.2759C54.4683 57.1996 54.4344 57.1233 54.3835 57.0469C50.5838 50.0582 44.3668 50.0582 40.5671 57.0469H40.5756Z" fill="#F49400"/>
<path d="M34.876 87.8348C36.4196 87.8348 37.836 87.1648 38.981 86.0368C39.3457 85.6805 39.7953 86.3251 39.5069 86.7831C38.3958 88.5134 36.7419 89.616 34.8845 89.616C33.027 89.616 31.3731 88.5134 30.262 86.7831C29.9737 86.3251 30.4232 85.6805 30.7879 86.0368C31.9329 87.1648 33.3493 87.8348 34.8929 87.8348H34.876Z" fill="#7FCDE5"/>
<path d="M60.0915 87.8348C61.6352 87.8348 63.0516 87.1648 64.1966 86.0368C64.5613 85.6805 65.0108 86.3251 64.7224 86.7831C63.6113 88.5134 61.9575 89.616 60.1 89.616C58.2426 89.616 56.5887 88.5134 55.4776 86.7831C55.1892 86.3251 55.6387 85.6805 56.0034 86.0368C57.1484 87.1648 58.5649 87.8348 60.1085 87.8348H60.0915Z" fill="#7FCDE5"/>
<path d="M47.4795 87.8348C49.0231 87.8348 50.4395 87.1648 51.5845 86.0368C51.9492 85.6805 52.3988 86.3251 52.1104 86.7831C50.9993 88.5134 49.3454 89.616 47.488 89.616C45.6305 89.616 43.9766 88.5134 42.8656 86.7831C42.5772 86.3251 43.0267 85.6805 43.3914 86.0368C44.5364 87.1648 45.9528 87.8348 47.4965 87.8348H47.4795Z" fill="#7FCDE5"/>
<path d="M41.3474 96.486C42.891 96.486 44.3074 95.8159 45.4524 94.6879C45.8171 94.3317 46.2667 94.9763 45.9783 95.4343C44.8672 97.1645 43.2133 98.2671 41.3559 98.2671C39.4984 98.2671 37.8445 97.1645 36.7334 95.4343C36.4451 94.9763 36.8946 94.3317 37.2593 94.6879C38.4043 95.8159 39.8207 96.486 41.3643 96.486H41.3474Z" fill="#7FCDE5"/>
<path d="M53.9594 96.486C55.503 96.486 56.9194 95.8159 58.0644 94.6879C58.4291 94.3317 58.8787 94.9763 58.5903 95.4343C57.4792 97.1645 55.8253 98.2671 53.9679 98.2671C52.1104 98.2671 50.4565 97.1645 49.3454 95.4343C49.0571 94.9763 49.5066 94.3317 49.8713 94.6879C51.0163 95.8159 52.4327 96.486 53.9763 96.486H53.9594Z" fill="#7FCDE5"/>
<path d="M33.4765 111.422C33.4765 112.66 32.815 114.458 32.1958 115.849C31.67 117.045 30.6776 117.045 30.1603 115.849C29.5496 114.45 28.8795 112.652 28.8795 111.422C28.8795 109.123 29.9058 107.257 31.178 107.257C32.4503 107.257 33.4765 109.123 33.4765 111.422Z" fill="#F49400"/>
<path d="M38.4976 111.422C38.4976 112.66 37.836 114.458 37.2169 115.849C36.691 117.045 35.6987 117.045 35.1813 115.849C34.5706 114.45 33.9006 112.652 33.9006 111.422C33.9006 109.123 34.9269 107.257 36.1991 107.257C37.4713 107.257 38.4976 109.123 38.4976 111.422Z" fill="#F49400"/>
<path d="M43.5186 111.422C43.5186 112.66 42.8571 114.458 42.2379 115.849C41.7121 117.045 40.7197 117.045 40.2024 115.849C39.5917 114.45 38.9217 112.652 38.9217 111.422C38.9217 109.123 39.9479 107.257 41.2202 107.257C42.4924 107.257 43.5186 109.123 43.5186 111.422Z" fill="#F49400"/>
<path d="M54.9602 111.422C54.9602 112.66 54.2986 114.458 53.6795 115.849C53.1536 117.045 52.1613 117.045 51.6439 115.849C51.0333 114.45 50.3632 112.652 50.3632 111.422C50.3632 109.123 51.3895 107.257 52.6617 107.257C53.9339 107.257 54.9602 109.123 54.9602 111.422Z" fill="#F49400"/>
<path d="M59.9897 111.422C59.9897 112.66 59.3282 114.458 58.709 115.849C58.1832 117.045 57.1908 117.045 56.6735 115.849C56.0628 114.45 55.3928 112.652 55.3928 111.422C55.3928 109.123 56.419 107.257 57.6913 107.257C58.9635 107.257 59.9897 109.123 59.9897 111.422Z" fill="#F49400"/>
<path d="M65.0108 111.422C65.0108 112.66 64.3492 114.458 63.7301 115.849C63.2042 117.045 62.2119 117.045 61.6945 115.849C61.0839 114.45 60.4138 112.652 60.4138 111.422C60.4138 109.123 61.4401 107.257 62.7123 107.257C63.9845 107.257 65.0108 109.123 65.0108 111.422Z" fill="#F49400"/>
<path d="M25.1307 73.1703C37.7125 73.1703 47.9121 62.9707 47.9121 50.389C47.9121 37.8072 37.7125 27.6076 25.1307 27.6076C12.5489 27.6076 2.34938 37.8072 2.34938 50.389C2.34938 62.9707 12.5489 73.1703 25.1307 73.1703Z" stroke="black" stroke-width="3" stroke-miterlimit="10"/>
<path d="M70.6001 73.1703C83.1819 73.1703 93.3815 62.9707 93.3815 50.389C93.3815 37.8072 83.1819 27.6076 70.6001 27.6076C58.0183 27.6076 47.8188 37.8072 47.8188 50.389C47.8188 62.9707 58.0183 73.1703 70.6001 73.1703Z" stroke="black" stroke-width="3" stroke-miterlimit="10"/>
</g>
<defs>
<filter id="filter0_d_56_1107" x="104.62" y="23.2" width="210.741" height="93.41" filterUnits="userSpaceOnUse" color-interpolation-filters="sRGB">
<feFlood flood-opacity="0" result="BackgroundImageFix"/>
<feColorMatrix in="SourceAlpha" type="matrix" values="0 0 0 0 0 0 0 0 0 0 0 0 0 0 0 0 0 0 127 0" result="hardAlpha"/>
<feOffset dy="4"/>
<feGaussianBlur stdDeviation="2"/>
<feComposite in2="hardAlpha" operator="out"/>
<feColorMatrix type="matrix" values="0 0 0 0 0 0 0 0 0 0 0 0 0 0 0 0 0 0 0.25 0"/>
<feBlend mode="normal" in2="BackgroundImageFix" result="effect1_dropShadow_56_1107"/>
<feBlend mode="normal" in="SourceGraphic" in2="effect1_dropShadow_56_1107" result="shape"/>
</filter>
<clipPath id="clip0_56_1107">
<rect width="94.9675" height="111.71" fill="white" transform="translate(0 10)"/>
</clipPath>
</defs>
</svg>
