<svg width="95" height="112" viewBox="0 0 95 112" fill="none" xmlns="http://www.w3.org/2000/svg">
<g clip-path="url(#clip0_50_94)">
<path d="M46.9452 111.71C69.2607 111.71 87.3511 108.839 87.3511 105.298C87.3511 101.757 69.2607 98.8859 46.9452 98.8859C24.6296 98.8859 6.53925 101.757 6.53925 105.298C6.53925 108.839 24.6296 111.71 46.9452 111.71Z" fill="#BFBFBF"/>
<path d="M35.0965 9.864C35.0965 9.864 31.9414 7.59095 26.9034 5.87769C21.789 4.13898 18.0911 6.31024 15.2328 0.00848007C14.5119 6.64102 19.0071 13.2057 19.0071 13.2057L35.105 9.87248L35.0965 9.864Z" fill="#F49400"/>
<path d="M59.871 9.864C59.871 9.864 63.0261 7.59095 68.0641 5.87769C73.1785 4.13898 76.8764 6.31024 79.7347 0.00848007C80.4556 6.64102 75.9604 13.2057 75.9604 13.2057L59.8625 9.87248L59.871 9.864Z" fill="#F49400"/>
<path d="M42.5348 16.7255C42.5348 16.7255 42.0344 6.59861 37.8615 2.061C42.1107 2.44267 44.4686 5.0465 45.5288 11.238C45.0368 3.14664 48.5058 2.12038 48.5058 2.12038C48.5058 2.12038 47.9884 10.3983 49.9731 10.9157C53.0943 5.40272 55.7151 5.64868 57.9542 5.75894C53.1452 9.1261 51.4743 18.7865 51.4743 18.7865L42.5263 16.7255H42.5348Z" fill="#F49400"/>
<path d="M4.21532 35.1643C4.19835 34.9523 4.18139 34.7403 4.16443 34.5282H4.3171C6.15758 25.0289 24.783 11.4924 47.488 11.4924C70.193 11.4924 88.8184 25.0289 90.6589 34.5282H90.8116C90.7946 34.7403 90.7776 34.9523 90.7607 35.1643C90.7946 35.4697 90.8116 35.775 90.8116 36.0804C90.8116 36.7928 90.7098 37.4968 90.5317 38.1922C89.7599 49.3963 89.4715 62.0253 83.7804 73.7298C70.5662 100.905 51.9493 102.007 47.4965 101.863C43.0437 102.016 24.4268 100.913 11.2126 73.7298C5.52147 62.0253 5.2331 49.3963 4.46128 38.1922C4.27469 37.4968 4.18139 36.8013 4.18139 36.0804C4.18139 35.775 4.19835 35.4697 4.23228 35.1643H4.21532Z" fill="#59A8C6"/>
<path d="M94.9421 64.6461C95.5867 75.1208 84.2723 95.205 84.2723 95.205C84.2723 95.205 70.5747 76.6559 69.9301 66.1812C69.2855 55.7066 74.3574 46.8773 81.2699 46.4448C88.1738 46.0207 94.2975 54.1629 94.9421 64.6376V64.6461Z" fill="#0D4F5E"/>
<path d="M0.0254492 64.6462C-0.619146 75.1209 10.6952 95.2051 10.6952 95.2051C10.6952 95.2051 24.3928 76.656 25.0374 66.1814C25.682 55.7067 20.6101 46.8774 13.6976 46.4449C6.7937 46.0293 0.670044 54.18 0.0254492 64.6462Z" fill="#0D4F5E"/>
<path d="M92.4146 37.9802C92.2704 26.4029 85.4003 16.6068 76.0707 13.2227C70.897 10.5256 45.2065 3.50286 18.9053 13.2227C9.56714 16.6068 2.69712 26.4029 2.55293 37.9802C2.36634 52.738 12.9682 64.7648 26.0722 64.7648C28.3537 64.7648 30.5589 64.4001 32.6453 63.7216C42.3397 60.558 52.6278 60.558 62.3222 63.7216C64.4086 64.4001 66.6138 64.7648 68.8953 64.7648C81.9993 64.7648 92.6012 52.738 92.4146 37.9802Z" fill="#28829E"/>
<path d="M66.9107 20.8984C56.6395 20.8984 48.2344 28.8371 47.4795 38.9132C46.7247 28.8371 38.3195 20.8984 28.0484 20.8984C17.7773 20.8984 8.55785 29.6259 8.55785 40.389C8.55785 51.152 17.2853 59.8795 28.0484 59.8795C38.8114 59.8795 46.7247 51.9408 47.4795 41.8647C48.2344 51.9408 56.6395 59.8795 66.9107 59.8795C77.1818 59.8795 86.4012 51.152 86.4012 40.389C86.4012 29.6259 77.6737 20.8984 66.9107 20.8984Z" fill="white"/>
<path d="M72.3897 39.4136C71.3041 40.2278 69.9301 40.6604 68.4797 40.5162C68.1999 40.4907 67.9369 40.4398 67.674 40.372C67.2669 42.4245 65.3585 43.8749 63.2297 43.6628C60.9651 43.4423 59.3027 41.4237 59.5233 39.1591C59.7268 37.0896 61.4231 35.5375 63.4332 35.4442C63.3993 35.0965 63.3993 34.7488 63.4332 34.384C63.552 33.1966 64.0269 32.1364 64.7479 31.2883C64.1202 31.1102 63.4672 30.9745 62.7886 30.9066C56.7837 30.3214 51.4489 34.7148 50.8636 40.7113C50.2784 46.7162 54.6718 52.051 60.6683 52.6363C66.6732 53.2215 72.008 48.8281 72.5933 42.8316C72.712 41.6527 72.6272 40.5077 72.3812 39.4136H72.3897Z" fill="#47808D"/>
<path d="M41.8054 35.0286C41.1862 36.233 40.1345 37.2169 38.7605 37.7173C38.4976 37.8106 38.2347 37.8784 37.9717 37.9378C38.4891 39.9649 37.4035 42.0937 35.3934 42.8316C33.256 43.6119 30.8897 42.5178 30.1009 40.3805C29.3884 38.4297 30.2366 36.2924 32.0177 35.334C31.8396 35.0371 31.6869 34.7148 31.5597 34.384C31.1526 33.2645 31.1187 32.094 31.407 31.0254C30.7624 31.1356 30.1094 31.2968 29.4733 31.5343C23.8161 33.6122 20.9069 39.8801 22.9849 45.5457C25.0629 51.2029 31.3307 54.112 36.9964 52.0341C42.6535 49.9561 45.5627 43.6883 43.4847 38.0226C43.0776 36.9115 42.5093 35.9107 41.8139 35.0371L41.8054 35.0286Z" fill="#47808D"/>
<path d="M40.5756 47.0469C40.5332 47.1318 40.4908 47.2081 40.4483 47.276C40.1854 47.7679 40.143 48.5142 40.3381 49.0995L46.7756 68.5476C47.0979 69.523 47.8697 69.523 48.192 68.5476L54.621 49.0995C54.816 48.5142 54.7736 47.7594 54.5107 47.276C54.4683 47.1996 54.4344 47.1233 54.3835 47.0469C50.5838 40.0582 44.3668 40.0582 40.5671 47.0469H40.5756Z" fill="#F49400"/>
<path d="M34.876 77.8348C36.4196 77.8348 37.836 77.1648 38.981 76.0368C39.3457 75.6805 39.7953 76.3251 39.5069 76.7831C38.3958 78.5134 36.7419 79.616 34.8845 79.616C33.027 79.616 31.3731 78.5134 30.262 76.7831C29.9737 76.3251 30.4232 75.6805 30.7879 76.0368C31.9329 77.1648 33.3493 77.8348 34.8929 77.8348H34.876Z" fill="#7FCDE5"/>
<path d="M60.0915 77.8348C61.6352 77.8348 63.0516 77.1648 64.1966 76.0368C64.5613 75.6805 65.0108 76.3251 64.7224 76.7831C63.6113 78.5134 61.9575 79.616 60.1 79.616C58.2426 79.616 56.5887 78.5134 55.4776 76.7831C55.1892 76.3251 55.6387 75.6805 56.0034 76.0368C57.1484 77.1648 58.5649 77.8348 60.1085 77.8348H60.0915Z" fill="#7FCDE5"/>
<path d="M47.4795 77.8348C49.0231 77.8348 50.4395 77.1648 51.5845 76.0368C51.9492 75.6805 52.3988 76.3251 52.1104 76.7831C50.9993 78.5134 49.3454 79.616 47.488 79.616C45.6305 79.616 43.9766 78.5134 42.8656 76.7831C42.5772 76.3251 43.0267 75.6805 43.3914 76.0368C44.5364 77.1648 45.9528 77.8348 47.4965 77.8348H47.4795Z" fill="#7FCDE5"/>
<path d="M41.3474 86.486C42.891 86.486 44.3074 85.8159 45.4524 84.6879C45.8171 84.3317 46.2667 84.9763 45.9783 85.4343C44.8672 87.1645 43.2133 88.2671 41.3559 88.2671C39.4984 88.2671 37.8445 87.1645 36.7334 85.4343C36.4451 84.9763 36.8946 84.3317 37.2593 84.6879C38.4043 85.8159 39.8207 86.486 41.3643 86.486H41.3474Z" fill="#7FCDE5"/>
<path d="M53.9594 86.486C55.503 86.486 56.9194 85.8159 58.0644 84.6879C58.4291 84.3317 58.8787 84.9763 58.5903 85.4343C57.4792 87.1645 55.8253 88.2671 53.9679 88.2671C52.1104 88.2671 50.4565 87.1645 49.3454 85.4343C49.0571 84.9763 49.5066 84.3317 49.8713 84.6879C51.0163 85.8159 52.4327 86.486 53.9763 86.486H53.9594Z" fill="#7FCDE5"/>
<path d="M33.4765 101.422C33.4765 102.66 32.815 104.458 32.1958 105.849C31.67 107.045 30.6776 107.045 30.1603 105.849C29.5496 104.45 28.8795 102.652 28.8795 101.422C28.8795 99.1234 29.9058 97.2575 31.178 97.2575C32.4503 97.2575 33.4765 99.1234 33.4765 101.422Z" fill="#F49400"/>
<path d="M38.4976 101.422C38.4976 102.66 37.836 104.458 37.2169 105.849C36.691 107.045 35.6987 107.045 35.1813 105.849C34.5706 104.45 33.9006 102.652 33.9006 101.422C33.9006 99.1234 34.9269 97.2575 36.1991 97.2575C37.4713 97.2575 38.4976 99.1234 38.4976 101.422Z" fill="#F49400"/>
<path d="M43.5186 101.422C43.5186 102.66 42.8571 104.458 42.2379 105.849C41.7121 107.045 40.7197 107.045 40.2024 105.849C39.5917 104.45 38.9217 102.652 38.9217 101.422C38.9217 99.1234 39.9479 97.2575 41.2202 97.2575C42.4924 97.2575 43.5186 99.1234 43.5186 101.422Z" fill="#F49400"/>
<path d="M54.9602 101.422C54.9602 102.66 54.2986 104.458 53.6795 105.849C53.1536 107.045 52.1613 107.045 51.6439 105.849C51.0333 104.45 50.3632 102.652 50.3632 101.422C50.3632 99.1234 51.3895 97.2575 52.6617 97.2575C53.9339 97.2575 54.9602 99.1234 54.9602 101.422Z" fill="#F49400"/>
<path d="M59.9897 101.422C59.9897 102.66 59.3282 104.458 58.709 105.849C58.1832 107.045 57.1908 107.045 56.6735 105.849C56.0628 104.45 55.3928 102.652 55.3928 101.422C55.3928 99.1234 56.419 97.2575 57.6913 97.2575C58.9635 97.2575 59.9897 99.1234 59.9897 101.422Z" fill="#F49400"/>
<path d="M65.0108 101.422C65.0108 102.66 64.3492 104.458 63.7301 105.849C63.2042 107.045 62.2119 107.045 61.6945 105.849C61.0839 104.45 60.4138 102.652 60.4138 101.422C60.4138 99.1234 61.4401 97.2575 62.7123 97.2575C63.9845 97.2575 65.0108 99.1234 65.0108 101.422Z" fill="#F49400"/>
<path d="M25.1307 63.1703C37.7125 63.1703 47.9121 52.9707 47.9121 40.389C47.9121 27.8072 37.7125 17.6076 25.1307 17.6076C12.5489 17.6076 2.34938 27.8072 2.34938 40.389C2.34938 52.9707 12.5489 63.1703 25.1307 63.1703Z" stroke="black" stroke-width="3" stroke-miterlimit="10"/>
<path d="M70.6001 63.1703C83.1819 63.1703 93.3815 52.9707 93.3815 40.389C93.3815 27.8072 83.1819 17.6076 70.6001 17.6076C58.0183 17.6076 47.8188 27.8072 47.8188 40.389C47.8188 52.9707 58.0183 63.1703 70.6001 63.1703Z" stroke="black" stroke-width="3" stroke-miterlimit="10"/>
</g>
<defs>
<clipPath id="clip0_50_94">
<rect width="94.9675" height="111.71" fill="white"/>
</clipPath>
</defs>
</svg>
